<svg id="Layer_1" data-name="Layer 1" xmlns="http://www.w3.org/2000/svg" viewBox="0 0 773 228"><defs><style>.cls-1{fill:#fff;}</style></defs><path class="cls-1" d="M180,86.06c0,13-8.19,22.13-22.25,22.13a48.44,48.44,0,0,1-14.88-2.79c7.36,4.92,10.54,17.38,10.54,23.94,0,16.56-12.88,45.25-49.68,45.25-28.27,0-44.49-17.38-44.49-40.17,0-18.36,11.37-28.85,21.91-32.79a37.83,37.83,0,0,1-2.34-13.77c0-13.77,10.37-23.61,25.09-23.61,12.37,0,19.73,4.76,19.73,16.4,0,5.41-3.84,10-8.69,11.8l-.51-.65c2-1.31,3-3.61,3-6.73,0-6.72-4-12-14.39-12-10.71,0-19.57,6.72-19.57,22.78a16.79,16.79,0,0,0,.84,4.6,22.38,22.38,0,0,1,6.35-.82c6.86,0,10.38,3,10.38,7.7,0,3.28-3.18,5.25-6.53,5.25-4.68,0-8.86-3-11.71-7.87-5.18,3.28-11,11-11,22.13C71.76,145.25,82,161,108.23,161c26.42,0,39.47-22.3,39.47-38.53,0-15.74-12.54-19.68-19.9-19.68-9.54,0-15.56,5.74-15.56,12.79,0,6.4,4.52,9.51,7.7,9.51-1-6.72,1.33-12.79,9.36-12.79a8.21,8.21,0,0,1,8,8.53c0,5.08-5.19,10.33-12.54,10.33-9.2,0-15.06-7.22-15.06-15.58,0-14.43,12-21.15,22.58-21.15a77.64,77.64,0,0,1,11.38,1c4.35.5,9.19,1.48,11.37,1.48,12,0,16.89-6.39,16.89-13.28,0-7.54-3.51-13.94-6-14.43-.5,6.23-4.52,12.3-10.2,12.3-5.19,0-8.87-3.44-8.87-8.36,0-5.41,5.36-8.86,10.54-8.86,7.36,0,22.58,8.36,22.58,21.81m28.08,29.88a95.39,95.39,0,1,0-95.39,95.4,95.39,95.39,0,0,0,95.39-95.4"/><path class="cls-1" d="M734.86,103.75c5.83,0,8.18,4.94,8.42,9.77H725.86c.47-5.83,3.82-9.77,9-9.77m.82,24.25a16.35,16.35,0,0,0,8.54-2.42v-1.94a16.4,16.4,0,0,1-8.54,2.53c-6.18,0-9.82-4.23-9.88-10.94h19.42a7.46,7.46,0,0,0,.06-1.12c0-5.18-2.71-12.13-10.36-12.13-6.65,0-11.18,5.18-11.18,13.13,0,7.77,4.35,12.89,11.94,12.89m-31.07-.65h1.71l10.06-22.95h3.94v-1.77H709.14v1.77h5.12l-8.83,20.42-8.77-20.42h5.12v-1.77H690.6v1.77h3.94ZM680.13,93a1.94,1.94,0,1,0,1.94-1.94A2,2,0,0,0,680.13,93m-3.59,34.31h12v-1.77h-5v-23h-7v1.77h5v21.18h-5Zm-7.89.65a10.74,10.74,0,0,0,4.06-.71v-1.71a10.38,10.38,0,0,1-3.76.65c-3.65,0-5.06-1.71-5.06-5.35V104.4h8.53v-1.77h-8.53V96.16h-2v6.47h-4.29v1.77h4.29v16.65c0,7,5.48,7,6.77,7M644,128a15.3,15.3,0,0,0,8.54-2.59v-2a15.41,15.41,0,0,1-8.54,2.71c-6.23,0-10.29-4.41-10.29-11.3,0-6.29,3.41-11.06,10.41-11.06a21.08,21.08,0,0,1,6.42,1.06v5.3h1.88v-6.48a22.59,22.59,0,0,0-8.3-1.71c-7.71,0-12.48,5.18-12.48,13s4.77,13,12.36,13m-46.43-.65h12v-1.77h-5V108.81c2.59-2.47,6.07-5,10-5,4.06,0,5.47,2.77,5.47,6.71v15.06h-5v1.77h12v-1.77h-5V110.17c0-5.42-2.76-8.19-7.18-8.19-3.59,0-7.18,1.83-10.24,4.77v-4.12h-7v1.77h5v21.18h-5v1.77ZM585.08,93A1.95,1.95,0,1,0,587,91.1,2,2,0,0,0,585.08,93m-3.59,34.31h12v-1.77h-5v-23h-7v1.77h5v21.18h-5v1.77Zm-7.88.65a10.74,10.74,0,0,0,4.06-.71v-1.71a10.44,10.44,0,0,1-3.77.65c-3.65,0-5.06-1.71-5.06-5.35V104.4h8.53v-1.77h-8.53V96.16h-2v6.47h-4.3v1.77h4.3v16.65c0,7,5.47,7,6.77,7m-25.48,0c5.06,0,9.24-1.89,9.24-6.59,0-9.13-15.42-5.65-15.42-13,0-2.94,2.53-4.65,6.77-4.65a23.9,23.9,0,0,1,5.7.76v4.3h1.89v-5.65a26.17,26.17,0,0,0-7.59-1.23c-5.54,0-8.65,2.47-8.65,6.53,0,9,15.41,5.65,15.41,13,0,3.53-3.64,4.7-7.47,4.7a24.9,24.9,0,0,1-6.71-1v-4.35h-1.82v5.71a28.7,28.7,0,0,0,8.65,1.47m-22-35a1.94,1.94,0,1,0,1.94-1.94A2,2,0,0,0,526.12,93m-3.59,34.31h12v-1.77h-5v-23h-7v1.77h5v21.18h-5v1.77Zm-20.13-1.18c-6.06,0-8.71-5.35-8.71-11.12,0-6.24,3.06-11.24,9.12-11.24a11.75,11.75,0,0,1,8.65,4.18v13.42c-2.17,2.29-4.88,4.76-9.06,4.76m-.17,1.83a12.08,12.08,0,0,0,9.23-4.54v3.89h7v-1.77h-5V85.74h-7.7v1.77h5.7v18.42a11.63,11.63,0,0,0-8.77-4c-7.29,0-11.06,6.07-11.06,13,0,6.71,3.53,13,10.6,13m-51.5,11.71a7.67,7.67,0,0,0,7.18-5.18l11.71-30.13h4.06v-1.77H462.32v1.71h5.24l-8.83,22.89-7.82-22.89h5.29v-1.71H444.79v1.77h4l8.06,22.95h1.82l-2.41,6.24c-1,2.59-2.76,4.35-5.65,4.35a7.45,7.45,0,0,1-4.29-1.47l-.65,1.59a9.44,9.44,0,0,0,5.06,1.65m-20.19-12.36h12v-1.77h-5V85.74h-7v1.77h5v38.07h-5v1.77Zm-15.24,0h12v-1.77h-5V85.74h-7v1.77h5v38.07h-5Zm-20.48.65c3.53,0,7.18-1.83,10.24-4.71v4.06h7v-1.77h-5v-23h-7v1.77h5v16.83c-2.65,2.47-6.06,4.94-9.95,4.94-4.06,0-5.47-2.76-5.47-6.71V102.63h-7v1.77h5v15.42c0,5.41,2.77,8.18,7.18,8.18m-29.95-.65h12.94v-1.77h-5.94V104.4h7.59v-1.77h-7.59v-10c0-3.77,1.71-5.77,6.24-5.77a25,25,0,0,1,3.71.35v-1.7a21.08,21.08,0,0,0-4-.42c-5,0-7.94,2.42-7.94,7.42v10.12h-5.42v1.77h5.42v21.18h-5v1.77Zm-16.07-23.6c5.83,0,8.18,4.94,8.42,9.77H339.8c.47-5.83,3.82-9.77,9-9.77m.82,24.25a16.35,16.35,0,0,0,8.54-2.42v-1.94a16.4,16.4,0,0,1-8.54,2.53c-6.18,0-9.83-4.23-9.88-10.94h19.42a7.46,7.46,0,0,0,.06-1.12c0-5.18-2.71-12.13-10.36-12.13-6.65,0-11.18,5.18-11.18,13.13,0,7.77,4.35,12.89,11.94,12.89m-20.42,0a10.74,10.74,0,0,0,4.06-.71v-1.71a10.38,10.38,0,0,1-3.76.65c-3.65,0-5.07-1.71-5.07-5.35V104.4H333v-1.77h-8.54V96.16h-2v6.47h-4.29v1.77h4.29v16.65c0,7,5.48,7,6.77,7m-25.48,0c5.06,0,9.24-1.89,9.24-6.59,0-9.13-15.42-5.65-15.42-13,0-2.94,2.53-4.65,6.77-4.65a24.05,24.05,0,0,1,5.71.76v4.3h1.88v-5.65a26.17,26.17,0,0,0-7.59-1.23c-5.53,0-8.65,2.47-8.65,6.53,0,9,15.42,5.65,15.42,13,0,3.53-3.65,4.7-7.48,4.7a25,25,0,0,1-6.71-1v-4.35h-1.82v5.71a28.81,28.81,0,0,0,8.65,1.47m-29.66-1.83c-3.18,0-5.83-1.7-5.83-5.23,0-5,5.07-5.83,8.95-5.83h6.24v6.77c-2.24,1.94-5.59,4.29-9.36,4.29m-.29,1.83c3.94,0,7.47-2.24,9.65-4v3.35h6.88v-1.77h-4.88V110.34c0-5.65-2.42-8.36-8.42-8.36a24.34,24.34,0,0,0-8.83,1.77v1.82a23.81,23.81,0,0,1,8.6-1.76c4.76,0,6.65,1.76,6.65,6.88v2.65h-6.24c-4.3,0-11,1.18-11,7.59,0,4.77,3.59,7.07,7.6,7.07M258,128a10.82,10.82,0,0,0,4.07-.71v-1.71a10.48,10.48,0,0,1-3.77.65c-3.65,0-5.06-1.71-5.06-5.35V104.4h8.53v-1.77h-8.53V96.16h-2v6.47h-4.29v1.77h4.29v16.65c0,7,5.48,7,6.77,7"/></svg>